<svg width="25" height="25" viewBox="0 0 25 25" fill="none" xmlns="http://www.w3.org/2000/svg">
<path d="M21.8747 12.4993H17.708M19.7913 14.5827L19.7913 10.416" stroke="#B4BCC4" stroke-width="1.5" stroke-linecap="round"/>
<path d="M3.125 19.9078C3.125 17.3941 4.89305 15.2531 7.29588 14.8569L7.51231 14.8212C9.43637 14.504 11.397 14.504 13.321 14.8212L13.5375 14.8569C15.9403 15.2531 17.7083 17.3941 17.7083 19.9078C17.7083 20.9942 16.8557 21.875 15.804 21.875H5.0293C3.97758 21.875 3.125 20.9942 3.125 19.9078Z" fill="#363853" fill-opacity="0.15"/>
<path d="M14.6702 7.22656C14.6702 9.49179 12.7658 11.3281 10.4167 11.3281C8.06756 11.3281 6.16322 9.49179 6.16322 7.22656C6.16322 4.96133 8.06756 3.125 10.4167 3.125C12.7658 3.125 14.6702 4.96133 14.6702 7.22656Z" fill="#363853" fill-opacity="0.15"/>
<path d="M3.125 19.9078C3.125 17.3941 4.89305 15.2531 7.29588 14.8569L7.51231 14.8212C9.43637 14.504 11.397 14.504 13.321 14.8212L13.5375 14.8569C15.9403 15.2531 17.7083 17.3941 17.7083 19.9078C17.7083 20.9942 16.8557 21.875 15.804 21.875H5.0293C3.97758 21.875 3.125 20.9942 3.125 19.9078Z" stroke="#B4BCC4" stroke-width="1.5"/>
<path d="M14.6702 7.22656C14.6702 9.49179 12.7658 11.3281 10.4167 11.3281C8.06756 11.3281 6.16322 9.49179 6.16322 7.22656C6.16322 4.96133 8.06756 3.125 10.4167 3.125C12.7658 3.125 14.6702 4.96133 14.6702 7.22656Z" stroke="#B4BCC4" stroke-width="1.5"/>
</svg>
