<svg width="27" height="27" viewBox="0 0 27 27" fill="none" xmlns="http://www.w3.org/2000/svg">
<path fill-rule="evenodd" clip-rule="evenodd" d="M16.1295 0.826319C13.5641 0.22456 10.8942 0.224561 8.32885 0.826319C4.60621 1.69953 1.69954 4.6062 0.82632 8.32885C0.22456 10.8942 0.22456 13.5641 0.82632 16.1295C1.69954 19.8521 4.60621 22.7588 8.32885 23.632C10.8942 24.2338 13.5641 24.2338 16.1295 23.632C17.6351 23.2788 19.0073 22.593 20.1654 21.6551L24.8268 26.3165C25.2382 26.7278 25.9051 26.7278 26.3165 26.3165C26.7278 25.9051 26.7278 25.2382 26.3165 24.8268L21.6551 20.1654C22.593 19.0073 23.2788 17.6351 23.632 16.1295C24.2338 13.5641 24.2338 10.8942 23.632 8.32885C22.7588 4.60621 19.8521 1.69953 16.1295 0.826319ZM12.2292 7.87527C12.6946 7.87527 13.0719 8.25255 13.0719 8.71796V11.3865H15.7404C16.2058 11.3865 16.583 11.7637 16.583 12.2291C16.583 12.6945 16.2058 13.0718 15.7404 13.0718H13.0719L13.0719 15.7403C13.0719 16.2057 12.6946 16.583 12.2292 16.583C11.7638 16.583 11.3865 16.2057 11.3865 15.7403V13.0718H8.718C8.2526 13.0718 7.87532 12.6945 7.87532 12.2291C7.87532 11.7637 8.2526 11.3865 8.718 11.3865H11.3865V8.71796C11.3865 8.25255 11.7638 7.87527 12.2292 7.87527Z" fill="#CFCFCF"/>
</svg>
