<svg width="25" height="25" viewBox="0 0 25 25" fill="none" xmlns="http://www.w3.org/2000/svg">
<path d="M9.64286 0C6.2897 0 3.57143 2.71827 3.57143 6.07143C3.57143 9.42459 6.2897 12.1429 9.64286 12.1429C12.996 12.1429 15.7143 9.42459 15.7143 6.07143C15.7143 2.71827 12.996 0 9.64286 0Z" fill="white"/>
<path d="M13.2258 14.844C10.8522 14.4652 8.43352 14.4652 6.0599 14.844L5.80548 14.8846C2.46096 15.4183 0 18.3032 0 21.69C0 23.5181 1.48192 25 3.30995 25H15.9758C17.8038 25 19.2857 23.5181 19.2857 21.69C19.2857 18.3032 16.8248 15.4183 13.4802 14.8846L13.2258 14.844Z" fill="white"/>
<path fill-rule="evenodd" clip-rule="evenodd" d="M21.0714 8.57143C21.6632 8.57143 22.1429 9.05112 22.1429 9.64286V11.4286H23.9286C24.5203 11.4286 25 11.9083 25 12.5C25 13.0917 24.5203 13.5714 23.9286 13.5714H22.1429V15.3571C22.1429 15.9489 21.6632 16.4286 21.0714 16.4286C20.4797 16.4286 20 15.9489 20 15.3571V13.5714H18.2143C17.6226 13.5714 17.1429 13.0917 17.1429 12.5C17.1429 11.9083 17.6226 11.4286 18.2143 11.4286H20V9.64286C20 9.05112 20.4797 8.57143 21.0714 8.57143Z" fill="white"/>
</svg>
