<svg width="22" height="22" viewBox="0 0 22 22" fill="none" xmlns="http://www.w3.org/2000/svg">
<path d="M5.01669 0C4.605 0 4.19609 0.0627682 3.80195 0.185838L3.50067 0.279914C1.74566 0.827917 0.47468 2.39542 0.144279 4.27044C-0.0480924 5.36214 -0.0480931 6.48401 0.144278 7.57571C0.151843 7.61865 0.159902 7.66142 0.168447 7.70402C1.54494 14.8587 7.14126 20.455 14.2959 21.8315C14.3385 21.8401 14.3813 21.8482 14.4243 21.8557C15.516 22.0481 16.6379 22.0481 17.7296 21.8557C19.6046 21.5253 21.1721 20.2543 21.7201 18.4993L21.8142 18.1981C21.9372 17.8039 22 17.395 22 16.9833C22 15.0045 20.2575 13.5385 18.287 13.5385H13.8668C11.8963 13.5385 10.1538 15.0045 10.1538 16.9833C10.1538 17.395 10.2166 17.8039 10.3397 18.1981L10.4338 18.4993C10.4659 18.6022 10.5015 18.7034 10.5405 18.8029C7.35277 17.2332 4.76679 14.6472 3.19713 11.4595C3.29659 11.4985 3.3978 11.5341 3.50067 11.5662L3.80195 11.6603C4.19609 11.7834 4.605 11.8462 5.01668 11.8462C6.99549 11.8462 8.46155 10.1037 8.46154 8.13316L8.46154 3.713C8.46155 1.74247 6.9955 0 5.01669 0Z" fill="#F3F4F3"/>
</svg>
