<svg width="17" height="18" viewBox="0 0 17 18" fill="none" xmlns="http://www.w3.org/2000/svg">
<path d="M15.8667 5.72461C15.5661 5.72461 15.2778 5.84401 15.0653 6.05656C14.8527 6.2691 14.7333 6.55736 14.7333 6.85794V7.99128H0.283333C0.208189 7.99128 0.136122 8.02113 0.0829864 8.07426C0.0298511 8.1274 0 8.19946 0 8.27461C0.00189687 9.58388 0.34004 10.8707 0.982021 12.0118C1.624 13.1529 2.5483 14.11 3.66633 14.7913C3.34417 14.79 3.03103 14.8977 2.77781 15.0969C2.52459 15.2961 2.34617 15.575 2.27153 15.8884C2.19688 16.2018 2.23042 16.5313 2.36667 16.8232C2.50292 17.1151 2.73389 17.3524 3.02205 17.4965C3.31021 17.6406 3.63862 17.683 3.95392 17.6168C4.26923 17.5507 4.55289 17.3798 4.75883 17.1321C4.96477 16.8843 5.08088 16.5742 5.08829 16.2521C5.09571 15.93 4.99399 15.6149 4.79967 15.3579C6.37253 15.9924 8.11334 16.0783 9.741 15.6016C9.65837 15.7793 9.61396 15.9723 9.61067 16.1683C9.60978 16.429 9.68088 16.685 9.81615 16.908C9.95141 17.1309 10.1456 17.3122 10.3773 17.4318C10.609 17.5515 10.8692 17.6049 11.1293 17.5861C11.3894 17.5673 11.6393 17.4771 11.8514 17.3254C12.0635 17.1737 12.2296 16.9664 12.3315 16.7264C12.4333 16.4863 12.4669 16.2228 12.4286 15.9649C12.3903 15.7069 12.2815 15.4646 12.1142 15.2645C11.947 15.0644 11.7277 14.9144 11.4807 14.8309C12.6325 14.1647 13.5907 13.2095 14.2605 12.0597C14.9303 10.9099 15.2886 9.60523 15.3 8.27461V6.85794C15.3 6.70765 15.3597 6.56352 15.466 6.45725C15.5722 6.35098 15.7164 6.29128 15.8667 6.29128C16.017 6.29128 16.1611 6.35098 16.2674 6.45725C16.3736 6.56352 16.4333 6.70765 16.4333 6.85794V7.14128C16.4333 7.21642 16.4632 7.28849 16.5163 7.34162C16.5695 7.39476 16.6415 7.42461 16.7167 7.42461C16.7918 7.42461 16.8639 7.39476 16.917 7.34162C16.9701 7.28849 17 7.21642 17 7.14128V6.85794C17 6.55736 16.8806 6.2691 16.6681 6.05656C16.4555 5.84401 16.1672 5.72461 15.8667 5.72461Z" fill="#CFCFCF"/>
<path d="M7.46676 6.68269C7.50785 6.71879 7.55851 6.74222 7.61262 6.75017C7.66673 6.75811 7.72199 6.75022 7.77172 6.72745C7.82145 6.70469 7.86352 6.66801 7.89287 6.62186C7.92222 6.57571 7.93758 6.52204 7.9371 6.46735V0.908353C7.9371 0.833208 7.90725 0.761141 7.85411 0.708006C7.80097 0.654871 7.72891 0.625019 7.65376 0.625019C5.92427 0.621098 4.24589 1.21123 2.89943 2.29669C2.86734 2.32327 2.84152 2.35661 2.82379 2.39432C2.80607 2.43203 2.79688 2.47318 2.79688 2.51485C2.79688 2.55652 2.80607 2.59768 2.82379 2.63539C2.84152 2.6731 2.86734 2.70643 2.89943 2.73302L7.46676 6.68269Z" fill="#CFCFCF"/>
<path d="M0.382881 7.42459H6.69555C6.75371 7.42518 6.81065 7.40785 6.85862 7.37496C6.9066 7.34207 6.94329 7.29522 6.96371 7.24075C6.98414 7.18629 6.9873 7.12686 6.97278 7.07054C6.95826 7.01421 6.92676 6.96372 6.88255 6.92592L2.42855 3.07825C2.37585 3.02802 2.30585 3 2.23305 3C2.16025 3 2.09024 3.02802 2.03755 3.07825C1.0074 4.19495 0.334493 5.59404 0.105214 7.09592C0.0986731 7.13627 0.100939 7.17755 0.111856 7.21694C0.122774 7.25633 0.142084 7.29289 0.168462 7.32411C0.194839 7.35533 0.22766 7.38048 0.264671 7.39782C0.301683 7.41517 0.342008 7.4243 0.382881 7.42459Z" fill="#CFCFCF"/>
</svg>
