<svg width="34" height="30" viewBox="0 0 34 30" fill="none" xmlns="http://www.w3.org/2000/svg">
<path fill-rule="evenodd" clip-rule="evenodd" d="M34 15C34 14.1983 33.3476 13.5484 32.5429 13.5484L1.45793 13.5484C0.653175 13.5484 0.000789642 14.1983 0.000789642 15C0.000789642 15.8017 0.653175 16.4516 1.45793 16.4516H32.5429C33.3476 16.4516 34 15.8017 34 15ZM27.6215 28.5484C27.6215 27.7467 26.9691 27.0968 26.1643 27.0968L1.45714 27.0968C0.652386 27.0968 0 27.7467 0 28.5484C0 29.3501 0.652386 30 1.45714 30L26.1643 30C26.9691 30 27.6215 29.3501 27.6215 28.5484ZM16.5689 1.45161C16.5689 0.649911 15.9166 6.29643e-07 15.1118 5.94599e-07L1.45714 0C0.652386 -3.50435e-08 0 0.64991 0 1.45161C0 2.25332 0.652386 2.90323 1.45714 2.90323L15.1118 2.90323C15.9166 2.90323 16.5689 2.25332 16.5689 1.45161Z" fill="#363853"/>
</svg>
