<svg width="22" height="22" viewBox="0 0 22 22" fill="none" xmlns="http://www.w3.org/2000/svg">
<path fill-rule="evenodd" clip-rule="evenodd" d="M6.31993 0C6.80457 0 7.19745 0.380758 7.19745 0.850446V1.12652C7.25465 1.1124 7.31206 1.09879 7.36969 1.08569C9.75749 0.542862 12.2425 0.542862 14.6303 1.08569C14.6879 1.09879 14.7454 1.1124 14.8026 1.12651V0.850446C14.8026 0.380758 15.1954 0 15.6801 0C16.1647 0 16.5576 0.380758 16.5576 0.850446V1.74656C18.6307 2.71716 20.2699 4.40414 21.141 6.48364C21.3212 6.91372 21.4685 7.36047 21.5799 7.82095C22.14 10.1351 22.14 12.5435 21.5799 14.8576C20.7711 18.1996 18.0786 20.809 14.6303 21.5929C12.2425 22.1357 9.75749 22.1357 7.3697 21.5929C3.9214 20.809 1.22894 18.1996 0.420078 14.8576C-0.140026 12.5435 -0.140026 10.1351 0.420078 7.82094C0.531529 7.36047 0.678804 6.91372 0.858978 6.48364C1.73015 4.40414 3.36927 2.71717 5.44242 1.74656V0.850446C5.44242 0.380758 5.8353 0 6.31993 0ZM5.44243 3.68995C4.50216 4.2685 3.70416 5.04186 3.10719 5.95312H18.8928C18.2958 5.04186 17.4978 4.2685 16.5576 3.68995C16.555 4.15748 16.1631 4.53571 15.6801 4.53571C15.1954 4.53571 14.8026 4.15496 14.8026 3.68527V2.89506C14.6147 2.83699 14.4236 2.78575 14.2295 2.74163C12.1053 2.25874 9.89467 2.25874 7.77049 2.74163C7.57642 2.78575 7.38531 2.83699 7.19745 2.89506V3.68527C7.19745 4.15496 6.80457 4.53571 6.31993 4.53571C5.83691 4.53571 5.44504 4.15749 5.44243 3.68995ZM13.4558 12.0412C13.4558 12.7045 13.161 13.1944 12.6871 13.5209C13.34 13.8985 13.7086 14.5211 13.7086 15.2457C13.7086 16.5621 12.6977 17.3786 11.0655 17.3786C9.42278 17.3786 8.42242 16.5621 8.42242 15.2457C8.42242 14.5211 8.79097 13.8985 9.43331 13.5209C8.96999 13.1944 8.66461 12.7045 8.66461 12.0412C8.66461 10.6634 9.77028 9.94907 11.0655 9.94907C12.3607 9.94907 13.4558 10.6634 13.4558 12.0412ZM12.0132 12.1126C12.0132 11.5819 11.6131 11.2758 11.0655 11.2758C10.5179 11.2758 10.1178 11.5819 10.1178 12.1126C10.1178 12.6331 10.5179 12.9597 11.0655 12.9597C11.6131 12.9597 12.0132 12.6331 12.0132 12.1126ZM9.86505 15.062C9.86505 15.7049 10.3705 16.0519 11.0655 16.0519C11.7605 16.0519 12.2659 15.7049 12.2659 15.062C12.2659 14.4292 11.7605 14.0822 11.0655 14.0822C10.3705 14.0822 9.86505 14.4292 9.86505 15.062Z" fill="white"/>
</svg>
