<svg width="9" height="9" viewBox="0 0 9 9" fill="none" xmlns="http://www.w3.org/2000/svg">
<path fill-rule="evenodd" clip-rule="evenodd" d="M6.78605 0C6.19887 0 5.63574 0.233255 5.22054 0.648452L2.60946 3.25954C1.41024 4.45876 0.559485 5.96135 0.148156 7.60666L0.0219891 8.11133C-0.108866 8.63475 0.365248 9.10887 0.888669 8.97801L1.39334 8.85184C3.03865 8.44052 4.54124 7.58976 5.74046 6.39054L8.35155 3.77946C8.76675 3.36426 9 2.80113 9 2.21395C9 0.991221 8.00878 0 6.78605 0ZM6.03566 2.96434C6.43535 3.36403 6.8987 3.53428 7.2424 3.47447L7.64448 3.07239C7.87215 2.84472 8.00005 2.53593 8.00005 2.21395C8.00005 1.54348 7.45652 0.999949 6.78605 0.999949C6.46407 0.999949 6.15528 1.12785 5.92761 1.35552L5.52553 1.7576C5.46572 2.1013 5.63597 2.56465 6.03566 2.96434Z" fill="white"/>
</svg>
