<svg width="27" height="25" viewBox="0 0 27 25" fill="none" xmlns="http://www.w3.org/2000/svg">
<g clip-path="url(#clip0_2467_3405)">
<path d="M13.8592 8.37314C13.8784 8.4245 13.9144 8.46905 13.9622 8.5006C14.01 8.53215 14.0672 8.54913 14.1259 8.54918H23.7244C23.7729 8.54911 23.8206 8.53739 23.8629 8.51517C23.9051 8.49295 23.9404 8.46099 23.9653 8.42239C23.9902 8.38379 24.0039 8.33987 24.0051 8.29492C24.0062 8.24996 23.9948 8.20549 23.9719 8.16585C21.7219 4.31168 17.979 0.353346 12.0019 0.00647055C11.8668 0.001572 11.7323 0.026175 11.6094 0.0782908C11.4865 0.130407 11.3785 0.208573 11.2942 0.306471C11.2092 0.408612 11.1526 0.528495 11.1292 0.655619C11.1059 0.782742 11.1166 0.913226 11.1604 1.03564L13.8592 8.37314Z" fill="white"/>
<path d="M15.0358 10.6331C14.9922 10.6332 14.9492 10.6427 14.9102 10.6608C14.8711 10.6789 14.8371 10.705 14.8108 10.7372C14.7847 10.7706 14.7676 10.8094 14.7609 10.8501C14.7543 10.8909 14.7583 10.9326 14.7726 10.9716L17.9383 19.7372C17.9927 19.886 18.0943 20.016 18.2299 20.1102C18.3655 20.2045 18.5288 20.2585 18.6982 20.2653C18.8676 20.2721 19.0353 20.2312 19.1791 20.1481C19.323 20.065 19.4364 19.9436 19.5043 19.7997C20.0154 18.5962 20.894 17.5567 22.0328 16.808C23.1716 16.0594 24.5212 15.6341 25.9168 15.5841C26.0442 15.5755 26.1679 15.5411 26.2793 15.4833C26.3907 15.4255 26.487 15.3458 26.5614 15.2497C26.6311 15.1593 26.6783 15.0557 26.6999 14.9465C26.7215 14.8372 26.7169 14.7249 26.6863 14.6174C26.3198 13.3154 25.8606 12.0372 25.3116 10.7914C25.2906 10.7435 25.2546 10.7024 25.2084 10.6735C25.1621 10.6446 25.1075 10.629 25.0517 10.6289L15.0358 10.6331Z" fill="white"/>
<path d="M14.0325 19.1764C14.062 19.1767 14.0909 19.1689 14.1156 19.1539C14.1402 19.1388 14.1594 19.1173 14.1707 19.0921C14.1819 19.0668 14.1848 19.039 14.1788 19.0123C14.1728 18.9855 14.1583 18.961 14.1371 18.942L13.1876 18.0628C12.6147 17.5291 11.9331 17.1059 11.1822 16.8179C10.4314 16.5298 9.62633 16.3826 8.81361 16.3847H7.32074L6.57599 14.6587C6.55888 14.6192 6.5525 14.5764 6.5574 14.534C6.5623 14.4917 6.57833 14.4511 6.60409 14.4159C6.62984 14.3806 6.66454 14.3518 6.70514 14.3318C6.74575 14.3118 6.79101 14.3014 6.83699 14.3014H7.20711C8.39071 14.3009 9.53672 13.9165 10.446 13.2149L12.8816 11.3399C13.1971 11.0675 13.3879 10.6935 13.4148 10.2948C13.4418 9.89608 13.3027 9.50299 13.0264 9.19626C12.75 8.88954 12.3572 8.69248 11.9288 8.64558C11.5003 8.59868 11.0688 8.70549 10.7227 8.94408L8.28599 10.8191C7.98315 11.0529 7.60143 11.1812 7.20711 11.1816H3.93561C3.65986 11.1807 3.38808 11.2424 3.14403 11.3612C2.89999 11.4801 2.69113 11.6526 2.53572 11.8635C2.38031 12.0744 2.28309 12.3173 2.25256 12.5711C2.22203 12.8249 2.25913 13.0817 2.36061 13.3191L4.51836 18.0264C4.72021 18.4661 5.05723 18.8411 5.48748 19.1049C5.91774 19.3686 6.42224 19.5094 6.93824 19.5097H8.81361C9.18311 19.5088 9.54912 19.5758 9.89052 19.7067C10.2319 19.8375 10.5419 20.0298 10.8026 20.2722L11.0737 20.5232C11.1251 20.5711 11.1947 20.5986 11.2676 20.5997C11.3404 20.6009 11.411 20.5757 11.4641 20.5295C11.5759 20.434 11.6811 20.332 11.7791 20.2243C12.0452 19.9037 12.3861 19.643 12.7763 19.4615C13.1664 19.28 13.5959 19.1826 14.0325 19.1764Z" fill="white"/>
<path d="M2.80469 9.5918C4.20266 9.5918 5.33594 8.54246 5.33594 7.24805C5.33594 5.95363 4.20266 4.9043 2.80469 4.9043C1.40672 4.9043 0.273438 5.95363 0.273438 7.24805C0.273438 8.54246 1.40672 9.5918 2.80469 9.5918Z" fill="white"/>
<path d="M25.7913 22.8638C24.0217 23.0128 22.7909 21.243 22.7831 21.2294C22.6723 21.0871 22.5262 20.9716 22.3571 20.8927C22.1879 20.8138 22.0008 20.7738 21.8114 20.776C21.622 20.7782 21.436 20.8227 21.2691 20.9056C21.1022 20.9885 20.9593 21.1075 20.8526 21.2523C20.5191 21.7366 20.0625 22.1378 19.5228 22.4207C18.983 22.7036 18.3766 22.8597 17.7566 22.8753C17.1992 22.8622 16.6556 22.7124 16.1813 22.4412C15.7069 22.17 15.3188 21.787 15.0566 21.3315C14.9637 21.1776 14.8319 21.047 14.6725 20.9507C14.513 20.8545 14.3306 20.7956 14.1411 20.7791C13.9516 20.7626 13.7606 20.789 13.5846 20.856C13.4085 20.923 13.2527 21.0287 13.1306 21.1638C12.7106 21.6608 12.182 22.0701 11.5795 22.365C10.977 22.6599 10.3141 22.8338 9.63406 22.8753C9.01417 22.8424 8.41102 22.6766 7.87217 22.391C7.33332 22.1054 6.87352 21.7077 6.52906 21.2294C6.42772 21.0941 6.29436 20.9819 6.13912 20.9015C5.98388 20.821 5.81087 20.7745 5.63326 20.7653C5.45565 20.7562 5.27813 20.7847 5.11422 20.8487C4.95031 20.9127 4.80434 21.0105 4.68743 21.1346C4.6728 21.1534 3.04268 23.0419 1.19093 22.9055C1.04257 22.8947 0.893389 22.912 0.752469 22.9562C0.611548 23.0005 0.481836 23.0709 0.371226 23.1631C0.260616 23.2553 0.171422 23.3673 0.109073 23.4925C0.046724 23.6176 0.012524 23.7531 0.0085546 23.8909C-0.000445398 24.0878 0.0524297 24.9992 1.31805 24.9992C2.88821 24.923 4.37657 24.3271 5.51206 23.32C6.59889 24.3476 8.07981 24.9364 9.63293 24.9586C11.2181 24.9316 12.7397 24.377 13.9192 23.3961C14.4047 23.8917 14.9976 24.287 15.6591 24.5563C16.3207 24.8255 17.0362 24.9626 17.7588 24.9586C19.286 24.9552 20.75 24.3937 21.8324 23.3961C22.3601 23.9105 23.0005 24.3143 23.7107 24.5806C24.4209 24.8469 25.1844 24.9694 25.9499 24.9398C26.2483 24.9206 26.5262 24.7925 26.7225 24.5836C26.9188 24.3746 27.0175 24.102 26.9967 23.8258C26.976 23.5495 26.8376 23.2922 26.612 23.1104C26.3863 22.9286 26.0919 22.8373 25.7936 22.8565L25.7913 22.8638Z" fill="white"/>
</g>
<defs>
<clipPath id="clip0_2467_3405">
<rect width="27" height="25" fill="white"/>
</clipPath>
</defs>
</svg>
