<svg width="20" height="20" viewBox="0 0 20 20" fill="none" xmlns="http://www.w3.org/2000/svg">
<g clip-path="url(#clip0_2467_4392)">
<path fill-rule="evenodd" clip-rule="evenodd" d="M4.32031 5.40234C4.32031 3.76275 5.71942 2.43359 7.44531 2.43359C9.17123 2.43359 10.5703 3.76275 10.5703 5.40234C10.5703 7.04194 9.17123 8.37109 7.44531 8.37109C5.71942 8.37109 4.32031 7.04194 4.32031 5.40234Z" fill="#CFCFCF"/>
<path fill-rule="evenodd" clip-rule="evenodd" d="M11.8203 7.86272C11.8203 6.36366 13.0414 5.14844 14.5476 5.14844C16.0538 5.14844 17.2749 6.36366 17.2749 7.86272C17.2749 9.36178 16.0538 10.577 14.5476 10.577C13.0414 10.577 11.8203 9.36178 11.8203 7.86272Z" fill="white"/>
<path fill-rule="evenodd" clip-rule="evenodd" d="M2.70307 12.0266C3.70138 10.5437 5.45181 9.55859 7.44485 9.55859C9.4381 9.55859 11.1888 10.544 12.187 12.0272C12.8771 13.0525 13.1757 14.289 13.0357 15.4944C13.0138 15.6828 12.8985 15.85 12.7255 15.9443C11.1694 16.7925 9.36577 17.2773 7.44485 17.2773C5.52395 17.2773 3.72035 16.7925 2.16423 15.9443C1.99118 15.85 1.87594 15.6828 1.85405 15.4944C1.71396 14.2887 2.0127 13.0521 2.70307 12.0266Z" fill="#CFCFCF"/>
<path fill-rule="evenodd" clip-rule="evenodd" d="M9.87849 13.5075C10.7659 12.2908 12.322 11.4824 14.0937 11.4824C15.8657 11.4824 17.4219 12.2909 18.3094 13.5079C18.9228 14.3492 19.1882 15.3637 19.0638 16.3529C19.0443 16.5075 18.9418 16.6446 18.7881 16.722C17.4047 17.418 15.8014 17.8158 14.0937 17.8158C12.3861 17.8158 10.7828 17.418 9.39948 16.722C9.24564 16.6446 9.1432 16.5075 9.12374 16.3529C8.99921 15.3636 9.26477 14.3489 9.87849 13.5075Z" fill="white"/>
<path fill-rule="evenodd" clip-rule="evenodd" d="M7.27344 10.5771C7.27344 9.57773 8.08746 8.76758 9.09162 8.76758C10.0958 8.76758 10.9098 9.57773 10.9098 10.5771C10.9098 11.5765 10.0958 12.3866 9.09162 12.3866C8.08746 12.3866 7.27344 11.5765 7.27344 10.5771Z" fill="#4E4E4E"/>
<path fill-rule="evenodd" clip-rule="evenodd" d="M5.26027 15.3161C6.06705 14.0993 7.48166 13.291 9.09233 13.291C10.7032 13.291 12.118 14.0995 12.9247 15.3165C13.4824 16.1578 13.7237 17.1723 13.6105 18.1614C13.5928 18.316 13.4997 18.4532 13.3599 18.5306C12.1023 19.2266 10.6447 19.6243 9.09233 19.6243C7.53996 19.6243 6.08238 19.2266 4.82481 18.5306C4.68496 18.4532 4.59183 18.316 4.57414 18.1614C4.46093 17.1721 4.70235 16.1575 5.26027 15.3161Z" fill="#4E4E4E"/>
</g>
<defs>
<clipPath id="clip0_2467_4392">
<rect width="20" height="19" fill="white" transform="translate(0 0.625)"/>
</clipPath>
</defs>
</svg>
