<svg width="19" height="16" viewBox="0 0 19 16" fill="none" xmlns="http://www.w3.org/2000/svg">
<path fill-rule="evenodd" clip-rule="evenodd" d="M12.6667 7.75757V8.44852C15.0446 9.54319 16.7547 11.8332 17.0164 14.5455H18.2692C18.6728 14.5455 19 14.8711 19 15.2727C19 15.6744 18.6728 16 18.2692 16H0.730769C0.327177 16 0 15.6744 0 15.2727C0 14.8711 0.327177 14.5455 0.730769 14.5455H1.98362C2.2453 11.8332 3.95544 9.54319 6.33333 8.44852V7.75757C6.33333 6.89325 6.78366 6.15994 7.36514 5.66303C7.94492 5.16757 8.71903 4.84848 9.5 4.84848C10.281 4.84848 11.0551 5.16757 11.6349 5.66303C12.2163 6.15994 12.6667 6.89325 12.6667 7.75757ZM7.79487 7.75757C7.79487 7.41692 7.9747 7.05932 8.31728 6.76657C8.66155 6.47236 9.1054 6.30303 9.5 6.30303C9.8946 6.30303 10.3384 6.47236 10.6827 6.76657C11.0253 7.05932 11.2051 7.41692 11.2051 7.75757V7.95013C10.6567 7.8241 10.0858 7.75757 9.5 7.75757C8.91417 7.75757 8.3433 7.8241 7.79487 7.95013V7.75757Z" fill="white"/>
<path fill-rule="evenodd" clip-rule="evenodd" d="M9.49999 0C9.90359 -3.81466e-06 10.2308 0.325604 10.2308 0.727266L10.2308 2.18181C10.2308 2.58347 9.90361 2.90909 9.50002 2.90909C9.09643 2.90909 8.76925 2.58349 8.76925 2.18183L8.76923 0.72728C8.76923 0.325618 9.0964 3.81473e-06 9.49999 0ZM4.59867 2.2127C4.88406 1.92868 5.34675 1.92869 5.63213 2.2127L6.5459 3.12211C6.83128 3.40613 6.83127 3.86661 6.54589 4.15063C6.2605 4.43464 5.79781 4.43464 5.51242 4.15062L4.59866 3.24122C4.31328 2.9572 4.31329 2.49671 4.59867 2.2127ZM14.4013 2.21272C14.6867 2.49674 14.6867 2.95722 14.4013 3.24124L13.4876 4.15062C13.2022 4.43464 12.7395 4.43464 12.4541 4.15062C12.1687 3.8666 12.1687 3.40612 12.4541 3.1221L13.3679 2.21272C13.6533 1.9287 14.116 1.9287 14.4013 2.21272Z" fill="white"/>
</svg>
