<svg width="20" height="18" viewBox="0 0 20 18" fill="none" xmlns="http://www.w3.org/2000/svg">
<path d="M13.5 5H11V1C11 0.734784 10.8946 0.48043 10.7071 0.292893C10.5196 0.105357 10.2652 0 10 0C9.73478 0 9.48043 0.105357 9.29289 0.292893C9.10536 0.48043 9 0.734784 9 1V5H6.5C4.77609 5 3.12279 5.68482 1.90381 6.90381C0.684819 8.12279 0 9.77609 0 11.5C0 13.2239 0.684819 14.8772 1.90381 16.0962C3.12279 17.3152 4.77609 18 6.5 18H13.5C15.2239 18 16.8772 17.3152 18.0962 16.0962C19.3152 14.8772 20 13.2239 20 11.5C20 9.77609 19.3152 8.12279 18.0962 6.90381C16.8772 5.68482 15.2239 5 13.5 5ZM8 12.5H7V13.5C7 13.7652 6.89464 14.0196 6.70711 14.2071C6.51957 14.3946 6.26522 14.5 6 14.5C5.73478 14.5 5.48043 14.3946 5.29289 14.2071C5.10536 14.0196 5 13.7652 5 13.5V12.5H4C3.73478 12.5 3.48043 12.3946 3.29289 12.2071C3.10536 12.0196 3 11.7652 3 11.5C3 11.2348 3.10536 10.9804 3.29289 10.7929C3.48043 10.6054 3.73478 10.5 4 10.5H5V9.5C5 9.23478 5.10536 8.98043 5.29289 8.79289C5.48043 8.60536 5.73478 8.5 6 8.5C6.26522 8.5 6.51957 8.60536 6.70711 8.79289C6.89464 8.98043 7 9.23478 7 9.5V10.5H8C8.26522 10.5 8.51957 10.6054 8.70711 10.7929C8.89464 10.9804 9 11.2348 9 11.5C9 11.7652 8.89464 12.0196 8.70711 12.2071C8.51957 12.3946 8.26522 12.5 8 12.5ZM14 14C13.8022 14 13.6089 13.9414 13.4444 13.8315C13.28 13.7216 13.1518 13.5654 13.0761 13.3827C13.0004 13.2 12.9806 12.9989 13.0192 12.8049C13.0578 12.6109 13.153 12.4327 13.2929 12.2929C13.4327 12.153 13.6109 12.0578 13.8049 12.0192C13.9989 11.9806 14.2 12.0004 14.3827 12.0761C14.5654 12.1518 14.7216 12.28 14.8315 12.4444C14.9414 12.6089 15 12.8022 15 13C15 13.2652 14.8946 13.5196 14.7071 13.7071C14.5196 13.8946 14.2652 14 14 14ZM16 11C15.8022 11 15.6089 10.9414 15.4444 10.8315C15.28 10.7216 15.1518 10.5654 15.0761 10.3827C15.0004 10.2 14.9806 9.99889 15.0192 9.80491C15.0578 9.61093 15.153 9.43275 15.2929 9.29289C15.4327 9.15304 15.6109 9.0578 15.8049 9.01921C15.9989 8.98063 16.2 9.00043 16.3827 9.07612C16.5654 9.15181 16.7216 9.27998 16.8315 9.44443C16.9414 9.60888 17 9.80222 17 10C17 10.2652 16.8946 10.5196 16.7071 10.7071C16.5196 10.8946 16.2652 11 16 11Z" fill="white"/>
</svg>
