<svg width="29" height="28" viewBox="0 0 29 28" fill="none" xmlns="http://www.w3.org/2000/svg">
<path fill-rule="evenodd" clip-rule="evenodd" d="M16.3498 1.00453C15.1376 0.680782 13.8572 0.680782 12.645 1.00453C11.9128 1.20053 11.2506 1.54586 10.5196 2.03119C9.80423 2.50486 8.9741 3.14536 7.92044 3.95969L7.89265 3.98069L5.47598 5.84736L5.36723 5.93136C4.13835 6.87986 3.38194 7.46436 2.82973 8.19936C2.34118 8.85016 1.97773 9.58043 1.75673 10.3554C1.50781 11.2304 1.50781 12.166 1.50781 13.685V19.8334C1.50781 21.6125 2.23982 23.3188 3.54281 24.5769C4.18798 25.1998 4.95392 25.6939 5.79688 26.0311C6.63984 26.3682 7.54332 26.5417 8.45573 26.5417C9.33702 26.5417 10.1822 26.2037 10.8054 25.602C11.4286 25.0003 11.7786 24.1843 11.7786 23.3334V18.6667C11.7786 17.9705 12.0651 17.3028 12.5749 16.8105C13.0848 16.3183 13.7763 16.0417 14.4974 16.0417C15.2185 16.0417 15.91 16.3183 16.4198 16.8105C16.9297 17.3028 17.2161 17.9705 17.2161 18.6667V23.3334C17.2161 24.1843 17.5662 25.0003 18.1894 25.602C18.8126 26.2037 19.6578 26.5417 20.5391 26.5417C22.3818 26.5417 24.149 25.8349 25.452 24.5769C26.755 23.3188 27.487 21.6125 27.487 19.8334V13.685C27.487 12.166 27.487 11.2315 27.2381 10.3554C27.0167 9.58035 26.6528 8.85007 26.1639 8.19936C25.6116 7.46436 24.8564 6.88103 23.6276 5.93136L23.5188 5.84736L21.1021 3.98069L21.0744 3.95969C20.0207 3.14536 19.1906 2.50486 18.4752 2.03003C17.7442 1.54586 17.082 1.20053 16.3498 1.00453Z" fill="white"/>
</svg>
