<svg width="19" height="19" viewBox="0 0 19 19" fill="none" xmlns="http://www.w3.org/2000/svg">
<path d="M16.3229 6.68893C15.4917 3.03143 12.3012 1.38477 9.49873 1.38477C9.49873 1.38477 9.49873 1.38477 9.49082 1.38477C6.69623 1.38477 3.4979 3.02352 2.66665 6.68102C1.7404 10.766 4.24207 14.2256 6.50623 16.4027C7.3454 17.2102 8.42207 17.6139 9.49873 17.6139C10.5754 17.6139 11.6521 17.2102 12.4833 16.4027C14.7475 14.2256 17.2492 10.7739 16.3229 6.68893ZM9.49873 10.6552C8.12123 10.6552 7.00498 9.53893 7.00498 8.16143C7.00498 6.78393 8.12123 5.66768 9.49873 5.66768C10.8762 5.66768 11.9925 6.78393 11.9925 8.16143C11.9925 9.53893 10.8762 10.6552 9.49873 10.6552Z" fill="white"/>
</svg>
