<svg width="24" height="19" viewBox="0 0 24 19" fill="none" xmlns="http://www.w3.org/2000/svg">
<path fill-rule="evenodd" clip-rule="evenodd" d="M12.6652 1.11225C13.1878 0.520669 14.0974 0.459186 14.6969 0.974921L23.5063 8.55385C23.82 8.82372 24 9.21432 24 9.625C24 10.0357 23.82 10.4263 23.5063 10.6961L14.6969 18.2751C14.0974 18.7908 13.1878 18.7293 12.6652 18.1378C12.1425 17.5462 12.2048 16.6485 12.8043 16.1328L18.7169 11.046L1.44 11.0461C0.644708 11.0461 -7.18193e-07 10.4098 -7.86805e-07 9.625C-8.55416e-07 8.84018 0.644708 8.20395 1.44 8.20395L18.7169 8.20395L12.8043 3.11722C12.2048 2.60148 12.1425 1.70383 12.6652 1.11225Z" fill="white"/>
</svg>
