<svg width="29" height="30" viewBox="0 0 29 30" fill="none" xmlns="http://www.w3.org/2000/svg">
<path fill-rule="evenodd" clip-rule="evenodd" d="M14.3872 1.14867C14.3872 0.514278 13.8577 0 13.2045 0C12.5514 0 12.0219 0.514278 12.0219 1.14867V1.6004C11.3162 1.68052 10.6175 1.8274 9.93741 2.04051C6.39481 3.1506 3.62637 5.93516 2.64599 9.4329L1.70779 12.7802L0.964827 16.0327C0.899389 16.3192 0.819073 16.6359 0.734662 16.9686C0.559456 17.6594 0.366604 18.4197 0.252553 19.1241C0.214803 19.3572 0.195312 19.5956 0.195312 19.8376C0.195312 22.0093 1.77039 23.8804 3.96177 24.312L4.54142 24.4262C5.50816 24.6165 6.47989 24.7747 7.45493 24.9007C7.46399 24.9394 7.47342 24.9781 7.48323 25.0166L7.61249 25.5248C8.12363 27.5343 9.74751 29.0982 11.8207 29.5776C12.7305 29.788 13.6785 29.788 14.5884 29.5776C16.6616 29.0982 18.2855 27.5343 18.7966 25.5248L18.9259 25.0166C18.9357 24.9781 18.9451 24.9394 18.9542 24.9007C19.9292 24.7747 20.9009 24.6165 21.8677 24.4262L22.4473 24.312C24.6387 23.8804 26.2138 22.0093 26.2138 19.8376C26.2138 19.5956 26.1943 19.3572 26.1565 19.1241C26.0425 18.4198 25.8497 17.6595 25.6745 16.9688C25.5901 16.636 25.5097 16.3192 25.4443 16.0327L24.7023 12.7847L23.7768 9.37439C22.8399 5.92266 20.1671 3.16652 16.6757 2.05184C15.9299 1.81375 15.162 1.65722 14.3872 1.58156V1.14867ZM12.3685 27.3427C11.2191 27.0769 10.306 26.2409 9.96007 25.1532C12.12 25.3097 14.2891 25.3097 16.449 25.1532C16.1031 26.2409 15.1899 27.0769 14.0406 27.3427C13.4909 27.4698 12.9182 27.4698 12.3685 27.3427Z" fill="black"/>
<circle cx="23.4269" cy="6.50507" r="5.11077" fill="#FF5726" stroke="white" stroke-width="0.929231"/>
</svg>
