<svg width="63" height="63" viewBox="0 0 63 63" fill="none" xmlns="http://www.w3.org/2000/svg">
<path d="M27.2382 10.2866C24.5404 -0.787851 6.97033 -0.819859 4.27245 10.2866C2.68744 16.784 7.03781 22.2892 10.8149 25.714C13.5802 28.1787 17.9305 28.1787 20.6959 25.714C24.4729 22.2892 28.7895 16.784 27.2382 10.2866ZM15.8734 15.4077C14.0186 15.4077 12.501 13.9674 12.501 12.207C12.501 10.4466 13.9849 9.0063 15.8397 9.0063H15.8734C17.7619 9.0063 19.2458 10.4466 19.2458 12.207C19.2458 13.9674 17.7619 15.4077 15.8734 15.4077Z" fill="#65676A"/>
<path d="M62.6667 39.8179C59.9815 28.7434 42.427 28.7114 39.7083 39.8179C38.1307 46.3153 42.4606 51.8206 46.2534 55.2453C49.0058 57.7099 53.3692 57.7099 56.1216 55.2453C59.9144 51.8206 64.2443 46.3153 62.6667 39.8179ZM51.3218 44.939C49.4757 44.939 47.9653 43.4987 47.9653 41.7383C47.9653 39.9779 49.4421 38.5376 51.2882 38.5376H51.3218C53.1678 38.5376 54.6783 39.9779 54.6783 41.7383C54.6783 43.4987 53.1678 44.939 51.3218 44.939Z" fill="#65676A"/>
<path d="M31.4989 51.8438H24.4638C21.4188 51.8438 18.7676 50.0062 17.7176 47.1712C16.6413 44.3363 17.4288 41.2125 19.7126 39.1913L40.6864 20.8425C41.9464 19.74 41.9727 18.2438 41.6052 17.22C41.2114 16.1962 40.2139 15.0938 38.5339 15.0938H31.4989C30.4227 15.0938 29.5302 14.2013 29.5302 13.125C29.5302 12.0488 30.4227 11.1562 31.4989 11.1562H38.5339C41.5789 11.1562 44.2302 12.9938 45.2802 15.8288C46.3564 18.6638 45.5689 21.7875 43.2852 23.8088L22.3113 42.1575C21.0513 43.26 21.0251 44.7563 21.3926 45.78C21.7863 46.8038 22.7838 47.9063 24.4638 47.9063H31.4989C32.5752 47.9063 33.4677 48.7988 33.4677 49.875C33.4677 50.9513 32.5752 51.8438 31.4989 51.8438Z" fill="white"/>
</svg>
