<svg width="21" height="22" viewBox="0 0 21 22" fill="none" xmlns="http://www.w3.org/2000/svg">
<path fill-rule="evenodd" clip-rule="evenodd" d="M7.21875 6.53125C7.21875 4.71906 8.68781 3.25 10.5 3.25C12.3122 3.25 13.7812 4.71906 13.7812 6.53125C13.7812 8.34344 12.3122 9.8125 10.5 9.8125C8.68781 9.8125 7.21875 8.34344 7.21875 6.53125Z" fill="#CFCFCF"/>
<path fill-rule="evenodd" clip-rule="evenodd" d="M13.7812 9.15625C13.7812 7.70651 14.9565 6.53125 16.4062 6.53125C17.856 6.53125 19.0312 7.70651 19.0312 9.15625C19.0312 10.606 17.856 11.7812 16.4062 11.7812C14.9565 11.7812 13.7812 10.606 13.7812 9.15625Z" fill="#CFCFCF"/>
<path fill-rule="evenodd" clip-rule="evenodd" d="M1.96875 9.15625C1.96875 7.70651 3.14401 6.53125 4.59375 6.53125C6.04349 6.53125 7.21875 7.70651 7.21875 9.15625C7.21875 10.606 6.04349 11.7812 4.59375 11.7812C3.14401 11.7812 1.96875 10.606 1.96875 9.15625Z" fill="#CFCFCF"/>
<path fill-rule="evenodd" clip-rule="evenodd" d="M5.52113 13.8528C6.56936 12.2139 8.40731 11.125 10.5 11.125C12.5929 11.125 14.4311 12.2141 15.4793 13.8534C16.2039 14.9867 16.5174 16.3533 16.3704 17.6857C16.3474 17.8939 16.2264 18.0786 16.0447 18.1829C14.4107 19.1204 12.517 19.6562 10.5 19.6562C8.48306 19.6562 6.58927 19.1204 4.95535 18.1829C4.77365 18.0786 4.65264 17.8939 4.62966 17.6857C4.48257 16.353 4.79624 14.9863 5.52113 13.8528Z" fill="#CFCFCF"/>
<path d="M4.447 13.097C4.43646 13.1132 4.42599 13.1294 4.41558 13.1456C3.5708 14.4665 3.1842 16.0396 3.30287 17.5904C2.77084 17.5096 2.25461 17.3796 1.75913 17.2051L1.65854 17.1697C1.47504 17.105 1.34683 16.9384 1.33139 16.7444L1.32293 16.6381C1.31602 16.5512 1.3125 16.4635 1.3125 16.375C1.3125 14.612 2.70292 13.1737 4.447 13.097Z" fill="#CFCFCF"/>
<path d="M17.6974 17.5904C17.8161 16.0399 17.4297 14.4671 16.5852 13.1464C16.5746 13.1299 16.564 13.1134 16.5533 13.097C18.2972 13.1739 19.6875 14.6121 19.6875 16.375C19.6875 16.4635 19.684 16.5512 19.6771 16.6381L19.6686 16.7444C19.6532 16.9384 19.5249 17.105 19.3414 17.1697L19.2409 17.2051C18.7455 17.3796 18.2294 17.5095 17.6974 17.5904Z" fill="#CFCFCF"/>
</svg>
