<svg width="35" height="33" viewBox="0 0 35 33" fill="none" xmlns="http://www.w3.org/2000/svg">
<path d="M7.29344 6.40726C7.29344 4.35026 9.08865 2.55176 11.4074 2.76763C18.9576 3.47287 25.9526 6.82252 31.0103 12.1548C32.5707 13.7951 32.0851 16.2303 30.3118 17.4416L29.6949 17.8638L29.1655 17.1213L29.1539 17.1061C24.5018 11.0465 16.933 7.10301 8.38719 7.10301H7.29344V6.40726ZM27.3718 18.301L27.923 19.0751L22.167 23.0145L21.8724 23.2208V26.111C21.8724 26.4757 21.7187 26.8254 21.4453 27.0833C21.1718 27.3411 20.8008 27.486 20.4141 27.486C20.0273 27.486 19.6564 27.3411 19.3829 27.0833C19.1094 26.8254 18.9557 26.4757 18.9557 26.111V26.0285C18.9324 25.8554 18.8402 25.6972 18.6977 25.5859C18.5552 25.4746 18.3732 25.4184 18.1885 25.4289C18.0038 25.4394 17.8303 25.5157 17.703 25.6424C17.5758 25.769 17.5044 25.9366 17.5032 26.111V28.1749C17.5033 28.5277 17.3595 28.867 17.1017 29.1226C16.8438 29.3783 16.4916 29.5307 16.1179 29.5483C15.7442 29.566 15.3776 29.4475 15.0939 29.2175C14.8103 28.9875 14.6312 28.6634 14.5939 28.3124L12.4939 29.7424C10.3224 31.2191 7.2876 29.7575 7.28906 27.2316L7.29344 9.16413H8.38719C16.1951 9.16413 23.1105 12.7625 27.3718 18.301ZM13.1282 15.111C13.515 15.111 13.8859 14.9661 14.1594 14.7083C14.4329 14.4504 14.5866 14.1007 14.5866 13.736C14.5866 13.3713 14.4329 13.0216 14.1594 12.7637C13.8859 12.5059 13.515 12.361 13.1282 12.361C12.7415 12.361 12.3705 12.5059 12.097 12.7637C11.8235 13.0216 11.6699 13.3713 11.6699 13.736C11.6699 14.1007 11.8235 14.4504 12.097 14.7083C12.3705 14.9661 12.7415 15.111 13.1282 15.111ZM18.9616 19.2333C19.3483 19.2333 19.7193 19.0884 19.9928 18.8305C20.2663 18.5727 20.4199 18.2229 20.4199 17.8583C20.4199 17.4936 20.2663 17.1438 19.9928 16.886C19.7193 16.6281 19.3483 16.4833 18.9616 16.4833C18.5748 16.4833 18.2039 16.6281 17.9304 16.886C17.6569 17.1438 17.5032 17.4936 17.5032 17.8583C17.5032 18.2229 17.6569 18.5727 17.9304 18.8305C18.2039 19.0884 18.5748 19.2333 18.9616 19.2333ZM13.1282 23.3555C13.515 23.3555 13.8859 23.2106 14.1594 22.9528C14.4329 22.6949 14.5866 22.3452 14.5866 21.9805C14.5866 21.6158 14.4329 21.2661 14.1594 21.0082C13.8859 20.7504 13.515 20.6055 13.1282 20.6055C12.7415 20.6055 12.3705 20.7504 12.097 21.0082C11.8235 21.2661 11.6699 21.6158 11.6699 21.9805C11.6699 22.3452 11.8235 22.6949 12.097 22.9528C12.3705 23.2106 12.7415 23.3555 13.1282 23.3555Z" fill="white"/>
</svg>
