<svg width="16" height="16" viewBox="0 0 16 16" fill="none" xmlns="http://www.w3.org/2000/svg">
<path d="M10.5396 1.71188C9.59119 -0.570626 6.40881 -0.570628 5.46041 1.71188L4.96328 2.90834C4.76533 3.38475 4.33399 3.70869 3.84098 3.76451L2.45368 3.92159C0.108516 4.18713 -0.827289 7.10656 0.858928 8.73679L2.03682 9.87556C2.38481 10.212 2.54128 10.7111 2.44532 11.1964L2.16092 12.6349C1.68874 15.0231 4.26222 16.8873 6.33588 15.556L7.26625 14.9587C7.71525 14.6705 8.28474 14.6705 8.73375 14.9587L9.66412 15.556C11.7378 16.8873 14.3113 15.0231 13.8391 12.6349L13.5547 11.1964C13.4587 10.7111 13.6152 10.212 13.9632 9.87556L15.1411 8.73679C16.8273 7.10656 15.8915 4.18713 13.5463 3.92159L12.159 3.76451C11.666 3.70869 11.2347 3.38475 11.0367 2.90835L10.5396 1.71188Z" fill="#FFC02D"/>
</svg>
