<svg width="22" height="19" viewBox="0 0 22 19" fill="none" xmlns="http://www.w3.org/2000/svg">
<path d="M4.17383 0C4.58594 1.16468 5.69415 2 7 2C8.30585 2 9.41406 1.16468 9.82617 0H13.1738C13.5859 1.16468 14.6941 2 16 2C17.3059 2 18.4141 1.16468 18.8262 0H19C20.6569 0 22 1.34315 22 3V16C22 17.6569 20.6569 19 19 19H18.8262C18.4141 17.8353 17.3059 17 16 17C14.6941 17 13.5859 17.8353 13.1738 19H9.82617C9.41406 17.8353 8.30585 17 7 17C5.69415 17 4.58594 17.8353 4.17383 19H3C1.34315 19 0 17.6569 0 16V3C0 1.34315 1.34315 4.83192e-08 3 0H4.17383ZM7 9V11H15V9H7Z" fill="white"/>
</svg>
