<svg width="35" height="35" viewBox="0 0 35 35" fill="none" xmlns="http://www.w3.org/2000/svg">
<path d="M32.0807 14.2181C31.4828 14.2181 30.987 13.7223 30.987 13.1243V10.2077C30.987 6.44518 28.5516 4.00977 24.7891 4.00977H10.2057C6.44323 4.00977 4.00781 6.44518 4.00781 10.2077V13.1243C4.00781 13.7223 3.51198 14.2181 2.91406 14.2181C2.31615 14.2181 1.82031 13.7223 1.82031 13.1243V10.2077C1.82031 5.19102 5.18906 1.82227 10.2057 1.82227H24.7891C29.8057 1.82227 33.1745 5.19102 33.1745 10.2077V13.1243C33.1745 13.7223 32.6786 14.2181 32.0807 14.2181Z" fill="#8E8E8E"/>
<path d="M24.7891 33.1771H10.2057C5.18906 33.1771 1.82031 29.8083 1.82031 24.7917V21.875C1.82031 21.2771 2.31615 20.7812 2.91406 20.7812C3.51198 20.7812 4.00781 21.2771 4.00781 21.875V24.7917C4.00781 28.5542 6.44323 30.9896 10.2057 30.9896H24.7891C28.5516 30.9896 30.987 28.5542 30.987 24.7917V21.875C30.987 21.2771 31.4828 20.7812 32.0807 20.7812C32.6786 20.7812 33.1745 21.2771 33.1745 21.875V24.7917C33.1745 29.8083 29.8057 33.1771 24.7891 33.1771Z" fill="#8E8E8E"/>
<path d="M32.0807 18.5938H2.91406C2.31615 18.5938 1.82031 18.0979 1.82031 17.5C1.82031 16.9021 2.31615 16.4062 2.91406 16.4062H32.0807C32.6786 16.4062 33.1745 16.9021 33.1745 17.5C33.1745 18.0979 32.6786 18.5938 32.0807 18.5938Z" fill="#8E8E8E"/>
<path opacity="0.4" d="M24.0651 13.1243H10.9401C10.5318 13.1243 10.2109 12.8035 10.2109 12.3952V9.47852C10.2109 8.28268 11.188 7.29102 12.3984 7.29102H22.6068C23.8172 7.29102 24.7943 8.28268 24.7943 9.47852V12.3952C24.7943 12.8035 24.4734 13.1243 24.0651 13.1243Z" fill="#8E8E8E"/>
<path opacity="0.4" d="M24.0651 21.875H10.9401C10.5318 21.875 10.2109 22.1958 10.2109 22.6042V25.5208C10.2109 26.7167 11.188 27.7083 12.3984 27.7083H22.6068C23.8172 27.7083 24.7943 26.7167 24.7943 25.5208V22.6042C24.7943 22.1958 24.4734 21.875 24.0651 21.875Z" fill="#8E8E8E"/>
</svg>
