<svg width="28" height="28" viewBox="0 0 28 28" fill="none" xmlns="http://www.w3.org/2000/svg">
<path d="M1.45605 16.5726L2.18623 16.4014L1.45605 16.5726ZM1.45605 8.69022L2.18623 8.8615L1.45605 8.69022ZM23.8068 8.69023L24.537 8.51895L23.8068 8.69023ZM23.8068 16.5726L23.0766 16.4013L23.8068 16.5726ZM16.5726 23.8068L16.7439 24.537L16.5726 23.8068ZM8.69023 23.8068L8.8615 23.0766L8.69023 23.8068ZM8.69022 1.45605L8.51895 0.72587L8.69022 1.45605ZM16.5726 1.45605L16.7439 0.72587L16.5726 1.45605ZM26.4697 27.5303C26.7626 27.8232 27.2374 27.8232 27.5303 27.5303C27.8232 27.2374 27.8232 26.7626 27.5303 26.4697L27 27L26.4697 27.5303ZM1.45605 16.5726L2.18623 16.4014C1.60459 13.9217 1.60459 11.3411 2.18623 8.8615L1.45605 8.69022L0.725871 8.51894C0.0913763 11.2239 0.0913762 14.039 0.725871 16.7439L1.45605 16.5726ZM23.8068 8.69023L23.0766 8.8615C23.6583 11.3411 23.6583 13.9217 23.0766 16.4013L23.8068 16.5726L24.537 16.7439C25.1715 14.039 25.1715 11.2239 24.537 8.51895L23.8068 8.69023ZM16.5726 23.8068L16.4013 23.0766C13.9217 23.6583 11.3411 23.6583 8.8615 23.0766L8.69023 23.8068L8.51895 24.537C11.2239 25.1715 14.039 25.1715 16.7439 24.537L16.5726 23.8068ZM8.69022 1.45605L8.8615 2.18623C11.3411 1.60459 13.9217 1.60459 16.4014 2.18623L16.5726 1.45605L16.7439 0.72587C14.039 0.0913764 11.2239 0.091377 8.51895 0.72587L8.69022 1.45605ZM8.69023 23.8068L8.8615 23.0766C5.54933 22.2997 2.96316 19.7135 2.18623 16.4014L1.45605 16.5726L0.725871 16.7439C1.6329 20.6107 4.65214 23.63 8.51895 24.537L8.69023 23.8068ZM16.5726 23.8068L16.7439 24.537C20.6107 23.63 23.6299 20.6107 24.537 16.7439L23.8068 16.5726L23.0766 16.4013C22.2997 19.7135 19.7135 22.2997 16.4013 23.0766L16.5726 23.8068ZM16.5726 1.45605L16.4014 2.18623C19.7135 2.96316 22.2997 5.54933 23.0766 8.8615L23.8068 8.69023L24.537 8.51895C23.6299 4.65214 20.6107 1.6329 16.7439 0.72587L16.5726 1.45605ZM8.69022 1.45605L8.51895 0.72587C4.65214 1.6329 1.6329 4.65213 0.725871 8.51894L1.45605 8.69022L2.18623 8.8615C2.96316 5.54933 5.54933 2.96316 8.8615 2.18623L8.69022 1.45605ZM21.7063 21.7063L21.176 22.2366L26.4697 27.5303L27 27L27.5303 26.4697L22.2366 21.176L21.7063 21.7063Z" fill="black"/>
</svg>
