<svg width="21" height="17" viewBox="0 0 21 17" fill="none" xmlns="http://www.w3.org/2000/svg">
<path d="M20.78 8.65234L13.2802 16.0423C13.1753 16.1457 13.0417 16.2162 12.8961 16.2448C12.7505 16.2733 12.5996 16.2587 12.4625 16.2027C12.3254 16.1467 12.2082 16.0519 12.1258 15.9303C12.0434 15.8087 11.9995 15.6657 11.9996 15.5194V11.8457C6.64665 12.145 2.97643 15.5656 1.94614 16.6492C1.78436 16.8194 1.57221 16.935 1.33988 16.9796C1.10755 17.0241 0.866871 16.9953 0.652105 16.8973C0.437338 16.7993 0.259424 16.637 0.143681 16.4336C0.0279375 16.2301 -0.0197367 15.9959 0.00744282 15.7642C0.355247 12.7842 2.01177 9.91786 4.67232 7.6935C6.88196 5.84601 9.56783 4.67379 11.9996 4.46872V0.739575C11.9995 0.593331 12.0434 0.450342 12.1258 0.328708C12.2082 0.207074 12.3254 0.112266 12.4625 0.0562854C12.5996 0.000304836 12.7505 -0.0143306 12.8961 0.0142317C13.0417 0.0427941 13.1753 0.11327 13.2802 0.216737L20.78 7.60666C20.8498 7.6753 20.9051 7.7568 20.9428 7.84651C20.9806 7.93622 21 8.03239 21 8.1295C21 8.22662 20.9806 8.32278 20.9428 8.41249C20.9051 8.5022 20.8498 8.58371 20.78 8.65234Z" fill="white"/>
</svg>
