<svg width="35" height="36" viewBox="0 0 35 36" fill="none" xmlns="http://www.w3.org/2000/svg">
<g clip-path="url(#clip0_2467_3396)">
<path d="M27.7083 7.50195H24.7917C23.1817 7.50195 21.875 8.84584 21.875 10.5017V15.0013H13.125V10.5017C13.125 8.84584 11.8183 7.50195 10.2083 7.50195H7.29167C5.68167 7.50195 4.375 8.84584 4.375 10.5017V22.5007C4.375 24.1566 5.68167 25.5005 7.29167 25.5005H10.2083C11.8183 25.5005 13.125 24.1566 13.125 22.5007V18.0011H21.875V22.5007C21.875 24.1566 23.1817 25.5005 24.7917 25.5005H27.7083C29.3183 25.5005 30.625 24.1566 30.625 22.5007V10.5017C30.625 8.84434 29.3198 7.50195 27.7083 7.50195Z" fill="white"/>
<path d="M35.0026 13.502H32.0859V19.5015H35.0026V13.502Z" fill="white"/>
<path d="M2.91667 13.502H0V19.5015H2.91667V13.502Z" fill="white"/>
</g>
<defs>
<clipPath id="clip0_2467_3396">
<rect width="35" height="36" fill="white"/>
</clipPath>
</defs>
</svg>
