<svg width="10" height="38" viewBox="0 0 10 38" fill="none" xmlns="http://www.w3.org/2000/svg">
<path d="M9.79713 21.326C10.0676 20.172 10.0676 18.9711 9.79712 17.8172C9.44285 16.3059 8.26357 15.1258 6.75324 14.7713C5.60006 14.5006 4.39993 14.5006 3.24676 14.7713C1.73643 15.1258 0.557148 16.3059 0.202872 17.8172C-0.0676249 18.9711 -0.0676259 20.172 0.202871 21.326C0.557148 22.8373 1.73643 24.0174 3.24677 24.3719C4.39994 24.6426 5.60006 24.6426 6.75323 24.3719C8.26357 24.0174 9.44285 22.8373 9.79713 21.326Z" fill="black" fill-opacity="0.6"/>
<path d="M9.79712 34.7511C10.0676 33.5972 10.0676 32.3962 9.79712 31.2423C9.44285 29.731 8.26357 28.5509 6.75324 28.1964C5.60006 27.9257 4.39993 27.9257 3.24676 28.1964C1.73643 28.5509 0.557148 29.731 0.202872 31.2423C-0.0676255 32.3962 -0.0676265 33.5972 0.202871 34.7511C0.557147 36.2624 1.73643 37.4425 3.24676 37.797C4.39994 38.0677 5.60006 38.0677 6.75323 37.797C8.26357 37.4425 9.44285 36.2624 9.79712 34.7511Z" fill="black" fill-opacity="0.3"/>
<path d="M9.79713 6.7577C10.0676 5.60376 10.0676 4.40285 9.79713 3.24891C9.44285 1.73758 8.26357 0.557519 6.75324 0.203008C5.60006 -0.0676694 4.39994 -0.0676695 3.24676 0.203007C1.73643 0.557519 0.557148 1.73758 0.202873 3.24891C-0.0676243 4.40285 -0.0676262 5.60376 0.202873 6.75769C0.557148 8.26903 1.73643 9.44909 3.24677 9.8036C4.39994 10.0743 5.60006 10.0743 6.75323 9.8036C8.26357 9.44909 9.44285 8.26903 9.79713 6.7577Z" fill="black"/>
</svg>
