<svg width="23" height="22" viewBox="0 0 23 22" fill="none" xmlns="http://www.w3.org/2000/svg">
<path d="M22.9974 9.57465C22.9893 9.51083 22.9821 9.44245 22.9063 9.41784C22.8873 9.36952 22.8404 9.37408 22.8024 9.36405C22.695 9.3367 22.5876 9.35037 22.4802 9.36314C22.3069 9.38411 22.1336 9.40416 21.9648 9.44975C21.9061 9.46069 21.8474 9.47163 21.7897 9.48257C21.7797 9.48804 21.7707 9.4926 21.7608 9.49807L21.7572 9.49442L21.7526 9.49716C21.6037 9.5081 21.462 9.55915 21.3149 9.57374C21.3112 9.56097 21.3067 9.5555 21.3076 9.55003C21.3112 9.52724 21.3149 9.50536 21.3194 9.48348C21.4322 8.98023 21.5008 8.47061 21.536 7.95642C21.5965 7.05295 21.564 6.15131 21.4755 5.25057C21.4006 4.49662 21.2905 3.74813 21.1343 3.00694C21.0657 2.68147 20.9944 2.35509 20.887 2.03965C20.8554 1.94484 20.8193 1.85184 20.7471 1.77891C20.7417 1.7625 20.7281 1.75612 20.7137 1.74974C20.6911 1.72239 20.6595 1.72148 20.627 1.71874C20.5268 1.71054 20.4492 1.76341 20.3761 1.81994C20.2344 1.92934 20.1062 2.05424 19.9816 2.18369C19.9717 2.19555 19.9645 2.21104 19.9563 2.22381C19.9284 2.22837 19.9112 2.24934 19.8959 2.26848C19.7632 2.43076 19.6088 2.57298 19.4689 2.72888C19.1647 3.06528 18.8533 3.39531 18.5419 3.72534C18.3649 3.91223 18.1817 4.09365 18.0021 4.27781C17.9777 4.30243 17.9443 4.32157 17.938 4.36078C17.8829 4.40818 17.8279 4.45559 17.7728 4.50391C17.7421 4.47838 17.7385 4.44374 17.7277 4.41456C17.5453 3.94414 17.3458 3.48192 17.1265 3.02882C16.7221 2.19008 16.2744 1.37686 15.758 0.602849C15.6651 0.464275 15.5649 0.33117 15.4602 0.201712C15.4493 0.188037 15.4358 0.180744 15.4186 0.192595C15.4222 0.202624 15.425 0.213564 15.4286 0.223592C15.4195 0.215387 15.4159 0.205359 15.4168 0.192595C15.4033 0.112368 15.3446 0.0686075 15.2823 0.0312288C15.1614 -0.0407935 15.0188 0.016642 14.9799 0.153393C14.9655 0.207182 14.9447 0.256413 14.9222 0.305643C14.9086 0.333905 14.8888 0.361255 14.8969 0.395899L14.8834 0.431454C14.8563 0.442394 14.85 0.468833 14.8409 0.492537C14.6559 0.942904 14.469 1.39145 14.2876 1.84273C14.1206 2.25481 13.9446 2.66232 13.7659 3.06893C13.7821 3.07349 13.7974 3.07987 13.8137 3.08625C13.8191 3.0817 13.8254 3.07896 13.8327 3.07805C13.8336 3.08352 13.8345 3.08899 13.8345 3.09355C14.1287 3.20386 14.414 3.33514 14.6884 3.48374C14.6965 3.47827 14.7046 3.47372 14.7128 3.46916C14.7525 3.44637 14.7786 3.45275 14.8021 3.48557C14.8175 3.50562 14.8301 3.52933 14.8373 3.55394C14.8391 3.5585 14.84 3.56397 14.8409 3.56853C16.9369 4.77103 18.3577 7.03654 18.383 9.63846C18.4281 9.65396 18.429 9.6722 18.401 9.73237C18.4019 9.75151 18.4019 9.77066 18.4028 9.79071H18.383C18.3776 10.3468 18.3081 10.8884 18.1808 11.4062C18.1826 11.4053 18.1853 11.4044 18.188 11.4044C18.1889 11.419 18.1853 11.4326 18.1718 11.4418C18.1673 11.4636 18.1618 11.4846 18.1555 11.5056C18.1591 11.5038 18.1636 11.5028 18.1691 11.5019C18.1673 11.532 18.1808 11.5703 18.1357 11.5803C18.1293 11.6059 18.123 11.6305 18.1149 11.656C18.1185 11.6496 18.1248 11.6442 18.133 11.6378C18.1555 11.6578 18.1555 11.677 18.132 11.6961C18.1194 11.687 18.1122 11.677 18.1122 11.6669C17.2727 14.6153 14.5819 16.7732 11.3918 16.7732C7.53024 16.7732 4.39979 13.6115 4.39979 9.7114C4.39979 6.54788 6.46058 3.86938 9.30036 2.97138C9.03679 2.37971 8.78855 1.78347 8.53851 1.18632C8.41395 0.888204 8.29299 0.588263 8.13773 0.304731C8.09892 0.234532 8.0601 0.16251 8.00052 0.106898C7.89582 -0.02256 7.78659 -0.0289417 7.65571 0.0886644C7.57988 0.109633 7.55461 0.18439 7.50947 0.236356C7.43185 0.3257 7.35963 0.421426 7.32352 0.53812C7.31179 0.578234 7.30276 0.618348 7.2802 0.655727C7.09154 0.959314 6.9083 1.26655 6.72777 1.57561C6.52105 1.93025 6.32969 2.2931 6.14013 2.65594C5.99209 2.94039 5.85218 3.22847 5.72129 3.52021C5.65089 3.67611 5.58318 3.83292 5.51548 3.99064C5.46132 4.11827 5.40897 4.24682 5.35391 4.37445C5.34308 4.39907 5.33405 4.44738 5.30607 4.43644C5.28621 4.42915 5.27447 4.42915 5.26815 4.43371C5.25642 4.44192 5.26093 4.46197 5.25822 4.47656V4.47838C5.25822 4.47838 5.25822 4.48203 5.25732 4.48385C5.22663 4.5112 5.19955 4.50117 5.17428 4.47291C5.13817 4.43189 5.10387 4.38995 5.06505 4.35166C4.64983 3.92955 4.24363 3.49924 3.84104 3.06528C3.52781 2.72796 3.22091 2.38426 2.89324 2.06062C2.86616 2.03418 2.84269 2.00136 2.80388 1.98951C2.80388 1.97857 2.79756 1.97401 2.78763 1.9731C2.76867 1.97219 2.74972 1.97127 2.73076 1.97127C2.72986 1.95213 2.72895 1.93298 2.72805 1.91384C2.70548 1.87555 2.67118 1.85184 2.63327 1.83179C2.56738 1.76888 2.49155 1.72695 2.40129 1.71509C2.32907 1.70598 2.28304 1.73333 2.25596 1.79806C2.26137 1.79806 2.26589 1.79806 2.2704 1.79988C2.2695 1.81264 2.2695 1.82449 2.26859 1.83726H2.26047H2.25235C2.24513 1.86005 2.2352 1.88284 2.2379 1.90837C2.22888 1.91931 2.21985 1.92934 2.21082 1.94028C2.16389 1.99589 2.15486 2.02871 2.16389 2.09435C2.15125 2.13082 2.14403 2.16728 2.14312 2.20557C2.15486 2.20922 2.16569 2.21743 2.16118 2.23019C2.15757 2.24295 2.14403 2.24478 2.13139 2.24478C2.12868 2.25754 2.12597 2.2703 2.12327 2.28307C2.135 2.28671 2.14583 2.29492 2.14222 2.30859C2.13771 2.32045 2.12417 2.32227 2.11153 2.32227L2.10341 2.32045C2.05918 2.33321 2.0682 2.37697 2.05376 2.40705C2.04654 2.42347 2.05105 2.4499 2.02758 2.45355C1.98064 2.46084 1.98064 2.50005 1.97252 2.53287C1.96349 2.57024 1.95537 2.60854 1.94634 2.64591C1.83261 3.11178 1.74595 3.58403 1.67283 4.0581C1.66381 4.121 1.63763 4.18391 1.65568 4.24955C1.6268 4.39815 1.61055 4.54949 1.59069 4.69992C1.51397 5.28339 1.46883 5.86869 1.44356 6.45672C1.44175 6.48498 1.43724 6.51506 1.44897 6.54242C1.43814 6.57706 1.44175 6.61353 1.44085 6.64817C1.43814 6.99734 1.43634 7.34651 1.45258 7.69568C1.47605 8.20622 1.53202 8.7122 1.6268 9.21454C1.64846 9.33305 1.67374 9.45157 1.69721 9.56826C1.62048 9.59106 1.56 9.55277 1.49501 9.54365C1.31809 9.49807 1.13846 9.46342 0.95702 9.4379C0.93987 9.41966 0.919108 9.42057 0.897444 9.42422C0.87217 9.41966 0.847798 9.41602 0.822523 9.41237C0.661849 9.36861 0.497563 9.35676 0.332375 9.34946C0.261967 9.34582 0.192462 9.35767 0.12747 9.38502C0.0949742 9.39869 0.0588675 9.41419 0.0814342 9.46251C0.0760182 9.47436 0.0715049 9.4853 0.0660889 9.49716C0.00831825 9.50536 -0.00161109 9.54639 0.000194247 9.59562C0.00290225 9.75516 0.0489382 9.90559 0.0994875 10.0542C0.428961 11.0197 0.860435 11.9368 1.38037 12.8111C1.77303 13.4702 2.21263 14.0929 2.74249 14.649C3.27778 15.2097 3.87083 15.6847 4.51804 16.0804C5.90183 18.0915 8.12961 19.4654 10.6851 19.6778C10.8376 19.7726 10.9902 19.8675 11.1427 19.9623C11.1716 19.9796 11.196 20.0124 11.2375 19.9951C11.2113 19.9577 11.2194 19.9149 11.2194 19.8729V19.7052C11.2727 19.7061 11.3269 19.707 11.381 19.707C11.4911 19.707 11.6004 19.7052 11.7087 19.6997C14.3183 19.5985 16.621 18.2875 18.0833 16.3065C18.1167 16.29 18.151 16.2727 18.1835 16.2545C18.8298 15.8944 19.422 15.4586 19.959 14.9472C20.4492 14.4804 20.8734 13.958 21.2499 13.3946C21.8429 12.5075 22.3249 11.5621 22.7131 10.5675C22.8124 10.314 22.9099 10.0606 22.973 9.79527C22.9902 9.72325 23.0064 9.6494 22.9974 9.57465Z" fill="white"/>
<path d="M14 20.5003V17.4997L11.4993 16L9 17.4997V20.5003L11.4993 22L14 20.5003Z" fill="white"/>
<path d="M11.5 3C14.5376 3 17 6.13401 17 10C17 13.866 14.5376 15.5 11.5 15.5C8.46243 15.5 6 13.866 6 10C6 6.13401 8.46243 3 11.5 3ZM8.13574 6.95996L9.53613 9.40039L8.04004 12H9.21582L10.1035 10.3281L11.0322 12H12.208L10.7197 9.40039L12.1201 6.95996H10.9922L10.1523 8.47168L9.32031 6.95996H8.13574ZM14.0342 6.77637C13.8342 6.78437 13.5937 6.80844 13.3057 6.85645C13.0178 6.90443 12.7694 6.96044 12.5615 7.02441V12H13.5938V10.1357H14.0342C14.5939 10.1357 15.0338 9.99206 15.3457 9.69629C15.6577 9.40029 15.8184 8.9676 15.8184 8.3916C15.8183 7.8478 15.6574 7.44772 15.3535 7.17578C15.0496 6.91203 14.6098 6.7764 14.0342 6.77637ZM14.0098 7.66406C14.2818 7.66406 14.4824 7.72003 14.6104 7.83203C14.7302 7.94406 14.7939 8.13636 14.7939 8.4082V8.42383C14.7939 8.97583 14.5298 9.24805 14.0098 9.24805H13.5859V7.71973C13.5939 7.71973 13.6425 7.71229 13.7305 7.69629C13.8103 7.68035 13.906 7.67204 14.0098 7.66406Z" fill="white"/>
</svg>
